# xmcd
# 
# Track frame offsets:
#     150
#     18375
#     34770
# 
# Disc length: 634
# 
# Revision: 8
# Processed by: cddbd v1.5.2PL0 Copyright (c) Steve Scherf et al.
# Submitted via: fre:ac v1.0.31
# 
DISCID=1a027803,20027803
DTITLE=Wheatus - Teenage Dirtbag
DYEAR=2001
DGENRE=Rock
TTITLE0=Teenage Dirtbag (Explicit Album Version)
TTITLE1=I'd Never Write A Song About You
TTITLE2=Sunshine (Remix)
EXTD=
EXTT0=
EXTT1=
EXTT2=
PLAYORDER=
